<?xml version="1.0" encoding="UTF-8" standalone="no"?><!DOCTYPE svg PUBLIC "-//W3C//DTD SVG 1.1//EN" "http://www.w3.org/Graphics/SVG/1.1/DTD/svg11.dtd"><svg width="100%" height="100%" viewBox="0 0 920 920" version="1.1" xmlns="http://www.w3.org/2000/svg" xmlns:xlink="http://www.w3.org/1999/xlink" xml:space="preserve" xmlns:serif="http://www.serif.com/" style="fill-rule:evenodd;clip-rule:evenodd;stroke-linecap:round;stroke-linejoin:round;stroke-miterlimit:1.5;"><path id="Background" d="M247.5,91.939l425,0l212.5,368.061l-212.5,368.061l-425,0l-212.5,-368.061l212.5,-368.061Z" style="fill:#fff;stroke:#fff;stroke-width:62.5px;"/><path id="Wrench-C" serif:id="Wrench C" d="M679.724,423.249c6.964,1.087 13.933,-1.92 17.919,-7.733c3.986,-5.813 4.28,-13.398 0.756,-19.502c-32.355,-56.04 -94.393,-163.494 -94.393,-163.494c-3.92,-6.79 -11.165,-10.973 -19.005,-10.973l-250,0c-7.84,-0 -15.085,4.183 -19.005,10.973l-96.286,166.773c-2.298,3.98 -6.545,6.432 -11.14,6.432l-87.036,-0c-4.596,-0 -8.843,-2.452 -11.14,-6.432c-2.298,-3.98 -2.298,-8.884 -0,-12.864l144.545,-250.36c5.582,-9.669 15.899,-15.625 27.063,-15.625l356,0c11.165,-0 21.481,5.956 27.063,15.625l178,308.305c5.582,9.669 5.582,21.581 -0,31.25l-178,308.305c-5.582,9.669 -15.899,15.625 -27.063,15.625l-356,0c-11.165,0 -21.481,-5.956 -27.063,-15.625l-144.545,-250.36c-2.298,-3.98 -2.298,-8.884 0,-12.864c2.298,-3.98 6.545,-6.432 11.14,-6.432l87.036,0c4.596,0 8.843,2.452 11.14,6.432l96.286,166.773c3.92,6.79 11.165,10.973 19.005,10.973l250,0c7.84,0 15.085,-4.183 19.005,-10.973c0,0 62.039,-107.454 94.393,-163.494c3.524,-6.104 3.23,-13.689 -0.756,-19.502c-3.986,-5.813 -10.955,-8.821 -17.919,-7.733c-29.718,4.64 -68.354,10.673 -82.372,12.862c-3.4,0.531 -6.377,2.572 -8.098,5.552c-10.119,17.526 -44.996,77.935 -44.996,77.935c-2.294,3.973 -6.533,6.42 -11.12,6.42l-146.277,-0c-4.587,-0 -8.826,-2.447 -11.12,-6.42l-73.138,-126.679c-2.294,-3.973 -2.294,-8.868 -0,-12.84l73.138,-126.679c2.294,-3.973 6.533,-6.42 11.12,-6.42l146.277,0c4.587,-0 8.826,2.447 11.12,6.42c-0,0 34.877,60.409 44.996,77.935c1.721,2.98 4.698,5.021 8.098,5.552c14.018,2.189 52.655,8.222 82.372,12.862Z" style="fill:#797979;"/><path d="M84.044,460c-11.913,-6.652 -22.047,-16.465 -29.105,-28.691c-13.736,-23.791 -13.736,-53.104 -0,-76.895l144.545,-250.36c17.02,-29.48 48.475,-47.641 82.516,-47.641l356,0c34.041,-0 65.496,18.161 82.516,47.641l178,308.305c17.02,29.48 17.02,65.801 0,95.281l-178,308.305c-17.02,29.48 -48.475,47.641 -82.516,47.641l-356,0c-34.041,0 -65.496,-18.161 -82.516,-47.641l-144.545,-250.36c-13.736,-23.792 -13.736,-53.104 0,-76.895c7.058,-12.225 17.193,-22.039 29.105,-28.691Zm595.68,-36.751l-82.372,-12.862c-3.4,-0.531 -6.377,-2.572 -8.098,-5.552l-44.996,-77.935c-2.294,-3.973 -6.533,-6.42 -11.12,-6.42l-146.277,0c-4.587,-0 -8.826,2.447 -11.12,6.42l-73.138,126.679c-2.294,3.973 -2.294,8.868 0,12.84l73.138,126.679c2.294,3.973 6.533,6.42 11.12,6.42l146.277,0c4.587,-0 8.826,-2.447 11.12,-6.42l44.996,-77.935c1.721,-2.98 4.698,-5.021 8.098,-5.552l82.372,-12.862c6.964,-1.087 13.933,1.92 17.919,7.733c3.986,5.813 4.28,13.398 0.756,19.502l-94.393,163.494c-3.92,6.79 -11.165,10.973 -19.005,10.973l-250,0c-7.84,-0 -15.085,-4.183 -19.005,-10.973l-96.286,-166.773c-2.298,-3.98 -6.545,-6.432 -11.14,-6.432l-87.036,-0c-4.596,0 -8.843,2.452 -11.14,6.432c-2.298,3.98 -2.298,8.884 -0,12.864l144.545,250.36c5.582,9.669 15.899,15.625 27.063,15.625l356,0c11.165,0 21.481,-5.956 27.063,-15.625l178,-308.305c5.582,-9.669 5.582,-21.581 0,-31.25l-178,-308.305c-5.582,-9.669 -15.899,-15.625 -27.063,-15.625l-356,-0c-11.165,0 -21.481,5.956 -27.063,15.625l-144.545,250.36c-2.298,3.98 -2.298,8.884 0,12.864c2.298,3.98 6.545,6.432 11.14,6.432l87.036,0c4.596,-0 8.843,-2.452 11.14,-6.432l96.286,-166.773c3.92,-6.79 11.165,-10.973 19.005,-10.973l250,-0c7.84,0 15.085,4.183 19.005,10.973l94.393,163.494c3.524,6.104 3.23,13.689 -0.756,19.502c-3.986,5.813 -10.955,8.821 -17.919,7.733Z" style="fill:#fff;fill-opacity:0;"/></svg>